<svg xmlns="http://www.w3.org/2000/svg" viewBox="0 0 100 100">
  <circle cx="50" cy="50" r="48" fill="#2d6a4f"/>
  <g transform="translate(50 50)">
    <path d="M0 0 L0 -42 A42 42 0 0 1 36.4 -21 Z" fill="#95d5b2"/>
    <path d="M0 0 L36.4 -21 A42 42 0 0 1 36.4 21 Z" fill="#ffd166"/>
    <path d="M0 0 L36.4 21 A42 42 0 0 1 0 42 Z" fill="#89c2d9"/>
    <path d="M0 0 L0 42 A42 42 0 0 1 -36.4 21 Z" fill="#e85d75"/>
    <path d="M0 0 L-36.4 21 A42 42 0 0 1 -36.4 -21 Z" fill="#fff8e7"/>
    <path d="M0 0 L-36.4 -21 A42 42 0 0 1 0 -42 Z" fill="#f4a261"/>
  </g>
  <circle cx="50" cy="50" r="14" fill="#fff8e7"/>
  <text x="50" y="57" font-size="18" text-anchor="middle">🧘</text>
  <path d="M50 2 L45 12 L55 12 Z" fill="#1b4332"/>
</svg>
